<?xml version="1.0" encoding="UTF-8" standalone="no"?>
<svg xmlns="http://www.w3.org/2000/svg" version="1.1"
     width="1680" height="620" viewBox="0 0 1680 620">
  <title>Commits per year</title>
  <desc>8,930 commits between 2018 and 2026, split by how central DAS is to each project.</desc>
  <rect x="0" y="0" width="1680" height="620" fill="#ffffff"/>
  <g font-family="Georgia, 'Times New Roman', serif" text-anchor="middle">
  <text x="841.6" y="62" font-size="24" fill="#2b2620" text-anchor="middle" letter-spacing="3.2">WHEN THE WORK HAPPENED</text>
  <text x="840" y="102" font-size="19" fill="#7a7266" text-anchor="middle" font-style="italic">Every commit in the catalogued histories, by the year it was authored.</text>
  <path d="M 180,460 L 1580,460" stroke="#cbc3b3" stroke-width="2" fill="none"/>
  <rect x="211.778" y="409.497" width="92" height="50.5031" fill="#e4dccb"/>
  <text x="257.778" y="492" font-size="19" fill="#7a7266" text-anchor="middle">2018</text>
  <text x="257.778" y="395.497" font-size="15" fill="#2b2620" text-anchor="middle">340</text>
  <rect x="367.333" y="453.167" width="92" height="6.83277" fill="#c98500"/>
  <rect x="367.333" y="392.712" width="92" height="60.4552" fill="#e4dccb"/>
  <text x="413.333" y="492" font-size="19" fill="#7a7266" text-anchor="middle">2019</text>
  <text x="413.333" y="378.712" font-size="15" fill="#2b2620" text-anchor="middle">453</text>
  <rect x="522.889" y="426.133" width="92" height="33.8668" fill="#c98500"/>
  <rect x="522.889" y="359.291" width="92" height="66.8424" fill="#e4dccb"/>
  <text x="568.889" y="492" font-size="19" fill="#7a7266" text-anchor="middle">2020</text>
  <text x="568.889" y="345.291" font-size="15" fill="#2b2620" text-anchor="middle">678</text>
  <rect x="678.444" y="407.12" width="92" height="52.8797" fill="#c98500"/>
  <rect x="678.444" y="401.773" width="92" height="5.34739" fill="#e4dccb"/>
  <text x="724.444" y="492" font-size="19" fill="#7a7266" text-anchor="middle">2021</text>
  <text x="724.444" y="387.773" font-size="15" fill="#2b2620" text-anchor="middle">392</text>
  <rect x="834" y="391.227" width="92" height="68.7734" fill="#c98500"/>
  <rect x="834" y="378.898" width="92" height="12.3287" fill="#e4dccb"/>
  <rect x="834" y="362.41" width="92" height="16.4878" fill="#4b4b50"/>
  <text x="880" y="492" font-size="19" fill="#7a7266" text-anchor="middle">2022</text>
  <text x="880" y="348.41" font-size="15" fill="#2b2620" text-anchor="middle">657</text>
  <rect x="989.556" y="323.939" width="92" height="136.061" fill="#c98500"/>
  <rect x="989.556" y="287.398" width="92" height="36.5405" fill="#e4dccb"/>
  <rect x="989.556" y="271.207" width="92" height="16.1907" fill="#4b4b50"/>
  <text x="1035.56" y="492" font-size="19" fill="#7a7266" text-anchor="middle">2023</text>
  <text x="1035.56" y="257.207" font-size="15" fill="#2b2620" text-anchor="middle">1,271</text>
  <rect x="1145.11" y="228.428" width="92" height="231.572" fill="#c98500"/>
  <rect x="1145.11" y="222.932" width="92" height="5.49593" fill="#e4dccb"/>
  <rect x="1145.11" y="217.585" width="92" height="5.34739" fill="#4b4b50"/>
  <text x="1191.11" y="492" font-size="19" fill="#7a7266" text-anchor="middle">2024</text>
  <text x="1191.11" y="203.585" font-size="15" fill="#2b2620" text-anchor="middle">1,632</text>
  <rect x="1300.67" y="163.963" width="92" height="296.037" fill="#c98500"/>
  <rect x="1300.67" y="150.891" width="92" height="13.0714" fill="#e4dccb"/>
  <rect x="1300.67" y="150" width="92" height="0.891231" fill="#4b4b50"/>
  <text x="1346.67" y="492" font-size="19" fill="#7a7266" text-anchor="middle">2025</text>
  <text x="1346.67" y="136" font-size="15" fill="#2b2620" text-anchor="middle">2,087</text>
  <rect x="1456.22" y="249.669" width="92" height="210.331" fill="#c98500"/>
  <rect x="1456.22" y="249.521" width="92" height="0.148539" fill="#e4dccb"/>
  <rect x="1456.22" y="249.075" width="92" height="0.445616" fill="#4b4b50"/>
  <text x="1502.22" y="492" font-size="19" fill="#7a7266" text-anchor="middle">2026</text>
  <text x="1502.22" y="516" font-size="15" fill="#a3825a" text-anchor="middle" font-style="italic">part year</text>
  <text x="1502.22" y="235.075" font-size="15" fill="#2b2620" text-anchor="middle">1,420</text>
  <path d="M 100,534 L 1580,534" stroke="#cbc3b3" stroke-width="3" fill="none"/>
  <rect x="342" y="574" width="22" height="22" rx="3" fill="#c98500"/>
  <text x="376" y="592" font-size="19" fill="#2b2620" text-anchor="start">DAS-native  6,977</text>
  <rect x="762" y="574" width="22" height="22" rx="3" fill="#e4dccb"/>
  <text x="796" y="592" font-size="19" fill="#2b2620" text-anchor="start">Other fiber  1,688</text>
  <rect x="1182" y="574" width="22" height="22" rx="3" fill="#4b4b50"/>
  <text x="1216" y="592" font-size="19" fill="#2b2620" text-anchor="start">DAS-supporting  265</text>
  </g>
</svg>
