<?xml version="1.0" encoding="UTF-8" standalone="no"?>
<svg xmlns="http://www.w3.org/2000/svg" version="1.1"
     width="1680" height="620" viewBox="0 0 1680 620">
  <title>Can this be depended on?</title>
  <desc>8 engineering practices across 76 DAS projects: packaged 28%, licence 83%, tests 49%, ci 36%, docs 26%, examples 59%, authors &gt; 1 39%, active 68%.</desc>
  <g font-family="Georgia, 'Times New Roman', serif" text-anchor="middle">
  <path d="M 182,375 L 1498,375" stroke="#f1ece1" stroke-width="1.5" fill="none"/>
  <path d="M 182,280 L 1498,280" stroke="#f1ece1" stroke-width="1.5" fill="none"/>
  <path d="M 182,185 L 1498,185" stroke="#f1ece1" stroke-width="1.5" fill="none"/>
  <path d="M 182,90 L 1498,90" stroke="#f1ece1" stroke-width="1.5" fill="none"/>
  <path d="M 202,62 L 470,62" stroke="#c98500" stroke-width="3" fill="none"/>
  <text x="336" y="40" font-size="34" fill="#2b2620" text-anchor="middle" font-style="italic">Can I get it?</text>
  <rect x="202" y="365" width="122" height="105" rx="3" fill="#c98500"/>
  <text x="263" y="319" font-size="52" fill="#2b2620" text-anchor="middle">28%</text>
  <text x="263" y="347" font-size="18" fill="#7a7266" text-anchor="middle">21 of 76</text>
  <text x="263" y="516" font-size="32" fill="#2b2620" text-anchor="middle">Packaged</text>
  <rect x="348" y="155" width="122" height="315" rx="3" fill="#c98500"/>
  <text x="409" y="109" font-size="52" fill="#2b2620" text-anchor="middle">83%</text>
  <text x="409" y="137" font-size="18" fill="#7a7266" text-anchor="middle">63 of 76</text>
  <text x="409" y="516" font-size="32" fill="#2b2620" text-anchor="middle">Licence</text>
  <path d="M 538,62 L 806,62" stroke="#4b4b50" stroke-width="3" fill="none"/>
  <text x="672" y="40" font-size="34" fill="#2b2620" text-anchor="middle" font-style="italic">Can I trust it?</text>
  <rect x="538" y="285" width="122" height="185" rx="3" fill="#4b4b50"/>
  <text x="599" y="239" font-size="52" fill="#2b2620" text-anchor="middle">49%</text>
  <text x="599" y="267" font-size="18" fill="#7a7266" text-anchor="middle">37 of 76</text>
  <text x="599" y="516" font-size="32" fill="#2b2620" text-anchor="middle">Tests</text>
  <rect x="684" y="335" width="122" height="135" rx="3" fill="#4b4b50"/>
  <text x="745" y="289" font-size="52" fill="#2b2620" text-anchor="middle">36%</text>
  <text x="745" y="317" font-size="18" fill="#7a7266" text-anchor="middle">27 of 76</text>
  <text x="745" y="516" font-size="32" fill="#2b2620" text-anchor="middle">CI</text>
  <path d="M 874,62 L 1142,62" stroke="#d9a63f" stroke-width="3" fill="none"/>
  <text x="1008" y="40" font-size="34" fill="#2b2620" text-anchor="middle" font-style="italic">Can I learn it?</text>
  <rect x="874" y="370" width="122" height="100" rx="3" fill="#d9a63f"/>
  <text x="935" y="324" font-size="52" fill="#2b2620" text-anchor="middle">26%</text>
  <text x="935" y="352" font-size="18" fill="#7a7266" text-anchor="middle">20 of 76</text>
  <text x="935" y="516" font-size="32" fill="#2b2620" text-anchor="middle">Docs</text>
  <rect x="1020" y="245" width="122" height="225" rx="3" fill="#d9a63f"/>
  <text x="1081" y="199" font-size="52" fill="#2b2620" text-anchor="middle">59%</text>
  <text x="1081" y="227" font-size="18" fill="#7a7266" text-anchor="middle">45 of 76</text>
  <text x="1081" y="516" font-size="32" fill="#2b2620" text-anchor="middle">Examples</text>
  <path d="M 1210,62 L 1478,62" stroke="#8a5f1c" stroke-width="3" fill="none"/>
  <text x="1344" y="40" font-size="34" fill="#2b2620" text-anchor="middle" font-style="italic">Will it last?</text>
  <rect x="1210" y="320" width="122" height="150" rx="3" fill="#8a5f1c"/>
  <text x="1271" y="274" font-size="52" fill="#2b2620" text-anchor="middle">39%</text>
  <text x="1271" y="302" font-size="18" fill="#7a7266" text-anchor="middle">30 of 76</text>
  <text x="1271" y="516" font-size="32" fill="#2b2620" text-anchor="middle">Authors &gt; 1</text>
  <rect x="1356" y="210" width="122" height="260" rx="3" fill="#8a5f1c"/>
  <text x="1417" y="164" font-size="52" fill="#2b2620" text-anchor="middle">68%</text>
  <text x="1417" y="192" font-size="18" fill="#7a7266" text-anchor="middle">52 of 76</text>
  <text x="1417" y="516" font-size="32" fill="#2b2620" text-anchor="middle">Active</text>
  <path d="M 182,470 L 1498,470" stroke="#cbc3b3" stroke-width="2" fill="none"/>
  </g>
</svg>
